<?xml version="1.0" encoding="UTF-8"?>
<svg xmlns="http://www.w3.org/2000/svg" xmlns:xlink="http://www.w3.org/1999/xlink" width="3000" height="3375" viewBox="0 0 3000 3375">

<path fill-rule="nonzero" fill="rgb(0%, 0%, 0%)" fill-opacity="1" d="M 1148.839844 628.820312 C 1147.300781 628.820312 1145.761719 628.820312 1144.210938 628.839844 L 1140.570312 628.839844 C 1139.980469 628.839844 1139.371094 628.828125 1138.730469 628.828125 C 1130.429688 628.820312 1117.78125 629.519531 1100.78125 630.910156 C 1095.550781 631.28125 1092.839844 632.269531 1092.660156 633.898438 C 1113.621094 641.921875 1133.308594 652.648438 1151.699219 666.078125 L 1165.671875 676.941406 C 1174.910156 684.589844 1184.011719 693.050781 1192.96875 702.300781 C 1201.929688 711.558594 1210.75 721.621094 1219.429688 732.480469 C 1220.160156 732.75 1220.851562 732.871094 1221.511719 732.878906 C 1221.828125 732.878906 1222.140625 732.851562 1222.449219 732.78125 C 1233.328125 729.929688 1241.359375 728.191406 1246.539062 727.558594 C 1253.871094 726.53125 1259.910156 725.921875 1264.660156 725.738281 C 1272.5 725.199219 1280.21875 724.929688 1287.828125 724.941406 C 1299.328125 724.960938 1310.570312 725.601562 1321.558594 726.871094 C 1323.421875 726.988281 1329.199219 727.78125 1338.898438 729.238281 L 1468.421875 758.621094 C 1459.160156 746.171875 1448.601562 734.570312 1436.75 723.820312 L 1418.011719 708.328125 C 1404.871094 698.429688 1390.429688 689.390625 1374.699219 681.199219 L 1350.128906 669.558594 L 1323.621094 659.191406 L 1295.171875 650.109375 C 1269.140625 643.261719 1255.210938 639.839844 1253.371094 639.839844 C 1253.328125 639.839844 1253.300781 639.839844 1253.269531 639.839844 C 1219.671875 632.539062 1184.859375 628.871094 1148.839844 628.820312 Z M 1090.738281 720.601562 L 1079.058594 720.851562 C 1047.859375 722.230469 1016.179688 729.28125 984.027344 742 C 963.171875 750.371094 943.554688 759.230469 925.183594 768.601562 C 893.882812 785.320312 872.859375 797.800781 862.109375 806.03125 C 871.421875 804.558594 881.171875 803.820312 891.367188 803.828125 C 902.851562 803.839844 914.894531 804.808594 927.496094 806.71875 C 940.792969 809.058594 952.554688 811.578125 962.777344 814.269531 C 967.890625 815.621094 972.621094 817 976.964844 818.441406 L 983.195312 820.621094 L 994.421875 825.191406 C 995.726562 825.191406 997.074219 824.769531 998.46875 823.929688 C 1019.089844 809.480469 1034.109375 799.5 1043.550781 793.980469 C 1056.019531 786.320312 1068.941406 778.859375 1082.339844 771.589844 C 1089.070312 768.058594 1098.980469 763.730469 1112.089844 758.621094 C 1119.378906 755.941406 1126.140625 753.878906 1132.390625 752.449219 L 1177.03125 735.699219 C 1170.730469 733.46875 1164.410156 731.488281 1158.070312 729.75 C 1151.730469 728.019531 1145.371094 726.53125 1138.988281 725.28125 L 1129.398438 723.609375 C 1116.601562 721.621094 1103.710938 720.609375 1090.738281 720.601562 Z M 1467.941406 695.089844 L 1467.769531 695.101562 C 1467.328125 695.128906 1467.109375 695.308594 1467.128906 695.621094 C 1488.671875 717 1500.941406 729.800781 1503.929688 734 C 1511.28125 742.480469 1518.070312 750.941406 1524.320312 759.359375 C 1536.820312 776.210938 1547.109375 792.941406 1555.191406 809.550781 C 1583.269531 818.46875 1609.53125 829.429688 1633.960938 842.449219 C 1642.109375 846.78125 1650.058594 851.351562 1657.800781 856.140625 L 1728.5 899.429688 L 1715.628906 879.179688 C 1706.691406 865.941406 1697.070312 853.21875 1686.761719 841.011719 C 1666.140625 816.589844 1642.75 794.230469 1616.601562 773.941406 C 1603.53125 763.789062 1589.761719 754.160156 1575.308594 745.03125 C 1571.769531 742.648438 1564.359375 738.410156 1553.070312 732.308594 C 1532.308594 721.019531 1503.941406 708.609375 1467.941406 695.089844 Z M 865.675781 852.070312 C 864.65625 852.070312 863.699219 852.089844 862.796875 852.121094 L 859.683594 852.140625 C 817.402344 853.75 780.253906 861.5 748.238281 875.398438 C 733.265625 881.320312 715.625 890.730469 695.3125 903.609375 C 676.695312 915.859375 658.785156 930.320312 641.589844 947 C 632.992188 955.328125 624.570312 964.21875 616.328125 973.660156 C 616.371094 974.058594 616.582031 974.308594 616.964844 974.441406 C 625.546875 972.871094 634.472656 971.839844 643.738281 971.339844 C 650.320312 971.210938 655.847656 971.140625 660.328125 971.140625 C 664.011719 971.148438 666.984375 971.199219 669.242188 971.308594 C 693.574219 972.679688 714.707031 975.640625 732.636719 980.171875 C 733.804688 980.171875 734.964844 979.621094 736.121094 978.511719 C 754.574219 957.988281 767.566406 944.558594 775.09375 938.210938 C 778.140625 935.371094 786.019531 928.871094 798.722656 918.730469 C 800.933594 916.988281 803.660156 915.078125 806.902344 912.988281 C 823.421875 902.960938 841.074219 893.550781 859.863281 884.75 L 914.855469 860.550781 C 908.164062 858.058594 901.015625 856.128906 893.417969 854.738281 C 881.609375 852.960938 872.359375 852.070312 865.675781 852.070312 Z M 1265.828125 757.359375 L 1259.421875 757.378906 C 1259.179688 757.378906 1258.941406 757.378906 1258.710938 757.378906 C 1230.109375 757.351562 1198.890625 760.75 1165.078125 767.589844 C 1135.359375 773.371094 1111.980469 780.96875 1094.949219 790.390625 C 1095.101562 791.089844 1096.71875 791.929688 1099.820312 792.929688 L 1143.839844 803.460938 C 1161.148438 809.359375 1173.070312 813.648438 1179.589844 816.328125 C 1192.03125 821.109375 1209.230469 831.371094 1231.210938 847.121094 C 1245.851562 857.019531 1258.039062 867.03125 1267.789062 877.140625 C 1302.410156 920.871094 1332.71875 955.371094 1358.730469 980.640625 C 1395.699219 1011.589844 1423.660156 1030.390625 1442.609375 1037.058594 L 1443.320312 1004.808594 L 1446.5 991.371094 C 1449.359375 982.921875 1453.710938 975.480469 1459.539062 969.070312 C 1469.46875 956.640625 1488.789062 947.460938 1517.5 941.519531 C 1530.75 938.460938 1546 936.929688 1563.25 936.960938 C 1576.398438 936.96875 1590.710938 937.878906 1606.179688 939.691406 C 1613.300781 940.390625 1623.53125 942.460938 1636.878906 945.910156 L 1686.230469 960.371094 L 1756.808594 969.199219 C 1679.859375 896.03125 1595.601562 839.390625 1504.03125 799.28125 C 1465.640625 785.101562 1442.179688 777.410156 1433.640625 776.191406 C 1417.449219 772.078125 1400.910156 768.640625 1384.019531 765.890625 C 1358.878906 761.328125 1319.480469 758.488281 1265.828125 757.359375 Z M 1852.019531 803.519531 L 1851.75 803.558594 C 1851.171875 803.820312 1851.761719 805.070312 1853.53125 807.320312 C 1861.078125 814.25 1872.648438 826.949219 1888.25 845.429688 C 1897 856.171875 1905.351562 867.371094 1913.300781 879.03125 C 1921.980469 894.988281 1927.820312 907.011719 1930.808594 915.089844 C 1937.011719 940.609375 1942.671875 960.910156 1947.808594 976 C 1952.640625 991.210938 1958.859375 1004.769531 1966.46875 1016.660156 C 1975.019531 1029.789062 1986.851562 1043.71875 2001.960938 1058.460938 L 2031.738281 1067.960938 C 2032.058594 1067.210938 2031.398438 1064.328125 2029.789062 1059.320312 L 2014.011719 1015.179688 C 2012.789062 1011.371094 2012.308594 1008.691406 2012.578125 1007.160156 C 2013.25 1003.199219 2016.449219 1000.121094 2022.179688 997.929688 L 2058.269531 990.140625 C 2058.890625 989.578125 2059.25 988.78125 2059.339844 987.738281 C 2059.121094 984.730469 2058.679688 982.628906 2058 981.460938 C 2056.609375 977.941406 2054.179688 973.46875 2050.679688 968.039062 C 2027.730469 935.628906 1994.230469 901.199219 1950.179688 864.769531 C 1930.929688 849 1898.21875 828.578125 1852.019531 803.519531 Z M 2061.589844 536.609375 L 2060.800781 536.820312 C 2058.960938 537.761719 2059.378906 541.519531 2062.058594 548.101562 C 2095.839844 616.589844 2117.378906 664.941406 2126.660156 693.140625 C 2136.269531 719.050781 2142.300781 751.519531 2144.730469 790.570312 C 2145.46875 806.28125 2140.839844 835.339844 2130.871094 877.730469 C 2128.050781 888.800781 2119.160156 910.730469 2104.210938 943.5 L 2090.648438 1004.410156 L 2108.308594 999.140625 C 2108.378906 999.128906 2108.441406 999.128906 2108.511719 999.128906 C 2110.21875 999.140625 2111.628906 1000.148438 2112.738281 1002.179688 C 2114.269531 1005.078125 2115.859375 1015.550781 2117.519531 1033.589844 C 2118.769531 1039.730469 2120.46875 1045.25 2122.628906 1050.140625 C 2128.910156 1064.519531 2136.070312 1074.21875 2144.089844 1079.230469 C 2154.941406 1089.960938 2180.589844 1097.199219 2221.03125 1100.96875 C 2209.628906 1093.109375 2200.019531 1083.320312 2192.230469 1071.609375 C 2187.339844 1059.78125 2184.148438 1044.539062 2182.691406 1025.910156 C 2182.671875 1018.601562 2183.140625 1010.390625 2184.109375 1001.300781 C 2184.539062 995.328125 2186.53125 982.210938 2190.058594 961.941406 C 2190.800781 957.398438 2196.71875 939.199219 2207.839844 907.339844 C 2216.78125 873.148438 2221.429688 852.949219 2221.800781 846.730469 C 2224.199219 827.949219 2225.089844 809.980469 2224.46875 792.828125 C 2224.148438 783.980469 2223.441406 775.050781 2222.339844 766.050781 L 2220.390625 752.488281 C 2218.898438 743.410156 2217.03125 734.261719 2214.761719 725.03125 L 2203.351562 699.058594 C 2195.28125 682.160156 2186.269531 666.101562 2176.320312 650.890625 C 2166.378906 635.671875 2155.5 621.289062 2143.691406 607.75 C 2120.070312 580.679688 2092.710938 556.960938 2061.589844 536.609375 Z M 1581.410156 451.101562 L 1584.320312 467.941406 C 1593.78125 514.890625 1616.75 577.558594 1653.230469 655.929688 C 1660.839844 671.910156 1672.5 692.898438 1688.21875 718.898438 C 1718.5 767.839844 1744.46875 808.160156 1766.128906 839.859375 C 1781.921875 867.960938 1790.789062 884.871094 1792.75 890.589844 C 1802.910156 921.761719 1808.019531 942.519531 1808.089844 952.839844 C 1808.921875 961.859375 1806.378906 981.898438 1800.488281 1012.960938 C 1801.371094 1031.441406 1804.5 1045.019531 1809.890625 1053.699219 C 1820.699219 1073.101562 1841 1088.988281 1870.789062 1101.378906 C 1864.28125 1088.941406 1860.921875 1073.121094 1860.730469 1053.941406 C 1861.789062 1043.761719 1865.851562 1035.550781 1872.910156 1029.320312 C 1875.179688 1028.390625 1877.648438 1027.929688 1880.351562 1027.929688 C 1884.878906 1027.941406 1890.03125 1029.261719 1895.789062 1031.898438 C 1904.070312 1035.398438 1922.960938 1047.601562 1952.449219 1068.5 C 1953 1068.738281 1953.441406 1068.859375 1953.78125 1068.859375 C 1954.421875 1068.859375 1954.679688 1068.429688 1954.578125 1067.578125 C 1933.511719 1019.929688 1907.71875 965.378906 1877.191406 903.929688 C 1863.828125 876.96875 1847.410156 847.699219 1827.929688 816.109375 C 1800.640625 770.53125 1734.339844 679.640625 1629.011719 543.441406 C 1614.53125 522.339844 1598.660156 491.558594 1581.421875 451.101562 Z M 1021.230469 860.78125 C 1019.769531 860.78125 1018.320312 860.800781 1016.878906 860.828125 L 990.234375 862.058594 C 972.414062 863.710938 954.472656 867.050781 936.414062 872.058594 L 909.238281 880.839844 C 872.878906 894.230469 836.046875 914.328125 798.738281 941.148438 C 758.332031 968.320312 725.472656 1011.980469 700.164062 1072.121094 C 785.28125 1034.808594 839.191406 1013.929688 861.894531 1009.480469 C 895.054688 1001.320312 925.101562 997.25 952.039062 997.28125 C 958.523438 997.289062 964.828125 997.539062 970.953125 998.019531 C 1009.148438 1001.679688 1047.058594 1010.5 1084.691406 1024.488281 C 1100.519531 1029.210938 1149.550781 1052.699219 1231.789062 1094.96875 C 1234.640625 1096.371094 1244.089844 1099.75 1260.148438 1105.121094 C 1277.449219 1110.851562 1300.660156 1116.210938 1329.789062 1121.191406 C 1337.089844 1122.46875 1346.210938 1123.121094 1357.148438 1123.128906 C 1362.558594 1123.140625 1368.410156 1122.988281 1374.710938 1122.691406 C 1419.121094 1119.191406 1455.460938 1112.730469 1483.75 1103.289062 C 1492.929688 1100.570312 1507.738281 1092.488281 1528.160156 1079.039062 L 1551.160156 1052.75 C 1526.300781 1070.171875 1497.761719 1078.859375 1465.539062 1078.820312 C 1441.609375 1078.789062 1415.640625 1073.941406 1387.648438 1064.289062 C 1380.929688 1062.550781 1364.78125 1053.398438 1339.199219 1036.839844 C 1237.980469 959.441406 1168.121094 910.449219 1129.621094 889.878906 C 1105.808594 877.988281 1088.710938 870.988281 1078.328125 868.871094 C 1058.820312 863.5 1039.789062 860.808594 1021.230469 860.78125 Z M 1419.621094 1135.210938 C 1417.089844 1137.050781 1421.390625 1147.589844 1432.519531 1166.820312 C 1441.359375 1182.621094 1449.941406 1195.300781 1458.28125 1204.839844 C 1472.21875 1222.730469 1494.859375 1242.761719 1526.191406 1264.929688 C 1527.601562 1265.839844 1529.128906 1266.289062 1530.789062 1266.289062 C 1531.421875 1266.289062 1532.070312 1266.230469 1532.738281 1266.101562 C 1552.859375 1261.011719 1569.300781 1258.46875 1582.058594 1258.460938 C 1584.921875 1258.359375 1587.789062 1258.308594 1590.648438 1258.308594 C 1602.589844 1258.320312 1614.578125 1259.300781 1626.609375 1261.230469 C 1674.75 1272.820312 1710.210938 1285.390625 1732.988281 1298.949219 L 1769.550781 1318.921875 C 1753.679688 1274.078125 1715.148438 1232.371094 1653.96875 1193.789062 C 1652.640625 1193.050781 1651.308594 1192.679688 1649.980469 1192.679688 C 1649.589844 1192.679688 1649.21875 1192.710938 1648.828125 1192.769531 C 1626.789062 1200 1606.140625 1204.140625 1586.878906 1205.210938 C 1583.609375 1205.351562 1580.390625 1205.410156 1577.230469 1205.410156 C 1562.410156 1205.390625 1548.75 1203.800781 1536.269531 1200.621094 C 1514.25 1197.738281 1475.371094 1175.929688 1419.628906 1135.210938 Z M 1592.910156 969.910156 C 1602.800781 1037.378906 1647.410156 1120.171875 1726.738281 1218.269531 C 1764.769531 1256.839844 1784.78125 1276.140625 1786.789062 1276.140625 C 1786.988281 1276.140625 1787 1275.929688 1786.828125 1275.53125 L 1803.941406 1254.660156 C 1807.429688 1251.308594 1811.320312 1248.789062 1815.640625 1247.121094 C 1821.859375 1244.371094 1827.96875 1243 1833.988281 1243.011719 C 1840.75 1243.019531 1847.390625 1244.761719 1853.910156 1248.25 C 1869.441406 1255.089844 1892.871094 1279.699219 1924.191406 1322.070312 C 1924.28125 1322.078125 1924.359375 1322.078125 1924.441406 1322.078125 C 1925.761719 1322.078125 1926.488281 1321.441406 1926.628906 1320.148438 C 1928.429688 1291.640625 1931.96875 1272.019531 1937.230469 1261.308594 C 1942.359375 1248.21875 1951.359375 1235.171875 1964.230469 1222.171875 C 1976.820312 1210.578125 1991.351562 1204.800781 2007.820312 1204.820312 C 2015.738281 1204.828125 2024.109375 1206.179688 2032.929688 1208.871094 L 2081.660156 1220.199219 C 2085.640625 1210.238281 2071.269531 1185.699219 2038.539062 1146.589844 C 2018.898438 1123.960938 1995.558594 1106.179688 1968.53125 1093.238281 C 1942.511719 1080.058594 1921.070312 1071.941406 1904.230469 1068.898438 L 1904.21875 1068.898438 C 1916.558594 1083.691406 1931.089844 1109.46875 1947.820312 1146.238281 C 1931 1133.820312 1909.96875 1125.089844 1884.710938 1120.039062 C 1888.648438 1118.460938 1852.449219 1115.949219 1776.109375 1112.519531 C 1762.25 1111.480469 1751.109375 1109.398438 1742.679688 1106.269531 C 1679.691406 1081.101562 1629.769531 1035.648438 1592.921875 969.910156 Z M 671.039062 1079.691406 L 650.089844 1086.511719 C 622.5 1096.710938 596.269531 1111.359375 571.40625 1130.429688 L 553.011719 1145.570312 C 540.921875 1156.210938 529.171875 1167.96875 517.761719 1180.839844 L 500.902344 1200.960938 C 483.289062 1227.871094 469.070312 1251.078125 458.238281 1270.609375 C 446.1875 1293.398438 439.972656 1305.96875 439.597656 1308.320312 C 436.726562 1315.308594 434.703125 1321.378906 433.527344 1326.539062 C 433.761719 1326.828125 434.089844 1326.980469 434.503906 1326.980469 C 434.726562 1326.980469 434.96875 1326.941406 435.242188 1326.859375 C 451.273438 1316.019531 463.652344 1308.320312 472.378906 1303.730469 C 476.058594 1301.289062 490.175781 1294.929688 514.722656 1284.640625 C 523.535156 1281.011719 543.550781 1276.019531 574.765625 1269.679688 C 585.261719 1229.460938 597.628906 1195.320312 611.871094 1167.238281 C 616.621094 1157.890625 621.574219 1149.199219 626.738281 1141.199219 Z M 2072.199219 1021.050781 C 2065.660156 1071.679688 2068.730469 1112.410156 2081.421875 1143.25 C 2086.148438 1155.488281 2094.71875 1168.710938 2107.128906 1182.890625 C 2110.359375 1187.710938 2126.910156 1202.160156 2156.78125 1226.230469 C 2161.609375 1230.730469 2165.789062 1235.441406 2169.289062 1240.351562 C 2179.859375 1256.640625 2185.339844 1273.988281 2185.699219 1292.398438 C 2177.289062 1279.140625 2164.640625 1270.949219 2147.75 1267.808594 C 2136.300781 1266.519531 2125.800781 1265.878906 2116.230469 1265.871094 C 2096.410156 1265.839844 2080.628906 1268.550781 2068.890625 1273.980469 C 2116.558594 1293.421875 2145.28125 1307.730469 2155.058594 1316.910156 C 2188.148438 1341.910156 2207.671875 1370.109375 2213.609375 1401.519531 C 2255.25 1410.730469 2281.171875 1423.648438 2291.378906 1440.289062 L 2309.71875 1460.929688 C 2316.871094 1456.089844 2324.140625 1432.808594 2331.539062 1391.109375 C 2337.039062 1356.351562 2338.910156 1327.679688 2337.128906 1305.101562 C 2333.089844 1248.769531 2317.511719 1200.089844 2290.410156 1159.050781 C 2289.851562 1158.378906 2289.410156 1158.039062 2289.078125 1158.039062 C 2288.660156 1158.039062 2288.429688 1158.589844 2288.378906 1159.699219 C 2291.640625 1181.140625 2292.628906 1195.929688 2291.339844 1204.070312 C 2287.261719 1224.898438 2284.289062 1235.480469 2282.429688 1235.808594 C 2269.421875 1207.421875 2255.359375 1187.710938 2240.25 1176.691406 C 2242.859375 1174.648438 2214.550781 1159.789062 2155.320312 1132.101562 C 2141.679688 1124.609375 2128.851562 1114.851562 2116.828125 1102.820312 C 2100.558594 1085.699219 2085.691406 1058.441406 2072.210938 1021.050781 Z M 1485.738281 1278.859375 C 1456.910156 1278.828125 1439.738281 1281.550781 1434.25 1287.03125 C 1459.960938 1298.269531 1479.46875 1310.359375 1492.800781 1323.328125 C 1498.828125 1328.871094 1505.230469 1335.621094 1512.011719 1343.578125 C 1556.089844 1401.289062 1580.320312 1431.351562 1584.691406 1433.75 C 1595.898438 1446.550781 1616.519531 1463.660156 1646.53125 1485.101562 C 1646.910156 1485.308594 1647.230469 1485.410156 1647.5 1485.410156 C 1648.070312 1485.410156 1648.378906 1484.929688 1648.410156 1483.960938 C 1646.730469 1476.511719 1646.269531 1471.441406 1647.019531 1468.738281 C 1647.71875 1465.539062 1648.890625 1463.121094 1650.558594 1461.460938 C 1655.871094 1456.449219 1664.628906 1453.859375 1676.851562 1453.679688 C 1677.808594 1453.609375 1678.789062 1453.589844 1679.789062 1453.589844 C 1698.488281 1453.609375 1723.949219 1464.390625 1756.171875 1485.941406 C 1765.761719 1445.910156 1791.308594 1425.921875 1832.808594 1425.96875 C 1840.261719 1425.980469 1848.21875 1426.628906 1856.691406 1427.929688 L 1882.96875 1429.441406 C 1866.660156 1391.679688 1835.941406 1365.371094 1790.808594 1350.511719 C 1771.441406 1343.21875 1752.808594 1337.78125 1734.910156 1334.191406 L 1756.570312 1367.410156 C 1759.128906 1371.75 1760.230469 1374.898438 1759.859375 1376.890625 C 1760.191406 1381.441406 1755.910156 1383.710938 1747.011719 1383.691406 C 1742.578125 1383.691406 1737.019531 1383.121094 1730.308594 1381.988281 C 1717.371094 1378.378906 1706.210938 1373.429688 1696.820312 1367.140625 C 1642.808594 1325.640625 1610.699219 1303.921875 1600.488281 1302 C 1569.019531 1288.351562 1536.640625 1280.738281 1503.378906 1279.179688 C 1497.078125 1278.96875 1491.199219 1278.871094 1485.738281 1278.859375 Z M 1406.359375 1219.71875 L 1402.910156 1219.769531 C 1388.871094 1220.269531 1374.390625 1222.960938 1359.480469 1227.851562 C 1354.160156 1228.871094 1340.839844 1233.980469 1319.5 1243.191406 C 1314.839844 1244.730469 1303.46875 1251.390625 1285.398438 1263.179688 C 1271.410156 1273.28125 1259.449219 1284.359375 1249.5 1296.421875 C 1238.011719 1309.039062 1227.058594 1327.878906 1216.660156 1352.949219 C 1211.75 1366.101562 1208.769531 1375.011719 1207.71875 1379.691406 C 1204.550781 1391.609375 1200.898438 1408.648438 1196.78125 1430.839844 C 1195.179688 1436.691406 1193.328125 1442.480469 1191.210938 1448.191406 C 1185.859375 1465.359375 1174.25 1481.980469 1156.410156 1498.050781 C 1158.21875 1499.328125 1160.289062 1499.96875 1162.589844 1499.96875 C 1162.808594 1499.96875 1163.039062 1499.96875 1163.261719 1499.960938 C 1182.5 1496.851562 1200.640625 1490.058594 1217.691406 1479.589844 C 1235.269531 1468.191406 1247.738281 1457.691406 1255.109375 1448.078125 C 1262.578125 1439.171875 1271.328125 1426.5 1281.359375 1410.078125 C 1285.25 1404.140625 1297.449219 1379.910156 1317.988281 1337.390625 L 1323.820312 1327.648438 C 1339.878906 1302.449219 1352.441406 1286.621094 1361.519531 1280.148438 C 1366.941406 1274.570312 1380.480469 1265.039062 1402.171875 1251.558594 L 1459.199219 1234.199219 C 1452.121094 1229.921875 1444.710938 1226.589844 1436.960938 1224.210938 C 1431.339844 1221.890625 1421.140625 1220.390625 1406.359375 1219.71875 Z M 961.183594 1074.449219 L 928.136719 1077.140625 C 915.777344 1077.398438 886.753906 1082.03125 841.066406 1091.039062 C 806.394531 1099.148438 777.089844 1109.839844 753.152344 1123.121094 C 728.449219 1137.941406 703.890625 1156.199219 679.472656 1177.898438 C 651.945312 1204.039062 636.300781 1220.050781 632.539062 1225.941406 C 603.683594 1256.890625 583.023438 1294.910156 570.558594 1340 C 565.828125 1355.710938 560.8125 1381.03125 555.515625 1415.960938 C 554.246094 1441.039062 555.097656 1470.109375 558.074219 1503.171875 C 561.09375 1489.210938 571.082031 1468.808594 588.035156 1441.980469 C 598.5 1427.101562 610.945312 1413.359375 625.371094 1400.78125 C 634.300781 1392.441406 643.40625 1384.820312 652.679688 1377.929688 C 657.101562 1373.578125 671.398438 1364.871094 695.570312 1351.820312 C 715.148438 1342.378906 735.410156 1335.851562 756.359375 1332.21875 C 795.1875 1279.191406 834.78125 1238.671875 875.144531 1210.640625 C 926.378906 1180.46875 973.550781 1160.371094 1016.660156 1150.351562 C 1031.039062 1147.011719 1044.949219 1144.789062 1058.421875 1143.679688 C 1067.808594 1143.121094 1075.46875 1142.839844 1081.390625 1142.839844 C 1085.339844 1142.851562 1088.519531 1142.980469 1090.929688 1143.238281 L 1191.390625 1131.660156 C 1190 1121.46875 1153.101562 1106.039062 1080.679688 1085.371094 C 1061.148438 1079.320312 1021.320312 1075.679688 961.183594 1074.449219 Z M 2028.191406 1307.800781 C 2017.449219 1307.78125 2014.308594 1308.949219 2018.75 1311.300781 C 2081.441406 1347.011719 2123.160156 1378.308594 2143.929688 1405.171875 C 2157.171875 1428.449219 2156.269531 1442.128906 2141.21875 1446.210938 C 2136.929688 1447.589844 2132.230469 1448.28125 2127.140625 1448.269531 C 2116.949219 1448.261719 2105.148438 1445.460938 2091.75 1439.890625 C 2084.578125 1436.429688 2077.609375 1432.289062 2070.859375 1427.449219 C 2044.03125 1405.03125 2027.488281 1392.230469 2021.238281 1389.058594 C 2003.53125 1378.609375 1987.691406 1371.230469 1973.730469 1366.921875 C 1956.421875 1361.078125 1940.699219 1357.640625 1926.558594 1356.621094 C 1926.171875 1356.058594 1907.921875 1355.511719 1871.820312 1354.980469 C 1869.910156 1355.28125 1869.429688 1356.179688 1870.359375 1357.691406 C 1898.921875 1376.328125 1919.609375 1391.359375 1932.441406 1402.78125 C 1944.289062 1412.519531 1963.601562 1436.019531 1990.351562 1473.269531 C 1998.058594 1481.859375 2008.871094 1489.800781 2022.808594 1497.070312 C 2044.519531 1508.640625 2068.761719 1518.28125 2095.53125 1525.980469 C 2103.039062 1527.960938 2113.769531 1530.140625 2127.71875 1532.511719 C 2160.089844 1535.730469 2184.699219 1539.390625 2201.550781 1543.488281 L 2266.890625 1546.851562 C 2265.109375 1546.640625 2251.121094 1511.160156 2224.941406 1440.421875 C 2207.910156 1406.78125 2192.679688 1383.980469 2179.230469 1372.011719 C 2142.851562 1332.808594 2097.160156 1311.550781 2042.179688 1308.238281 C 2036.589844 1307.949219 2031.929688 1307.800781 2028.191406 1307.800781 Z M 1330.230469 1150.929688 C 1327.941406 1150.929688 1325.671875 1150.980469 1323.398438 1151.109375 L 1314.371094 1151.28125 C 1289.941406 1152.191406 1262.921875 1156.890625 1233.289062 1165.371094 C 1202.609375 1176.691406 1184.308594 1184.621094 1178.410156 1189.171875 C 1124.570312 1221.78125 1083.570312 1258.140625 1055.441406 1298.25 C 1042.839844 1319.679688 1035.75 1333.210938 1034.191406 1338.820312 C 1025.949219 1358.511719 1019.300781 1380.410156 1014.25 1404.511719 C 1010.621094 1426.210938 1009.050781 1444.050781 1009.53125 1458 C 1009.550781 1471.570312 1012.390625 1500.128906 1018.039062 1543.679688 C 1018.628906 1556.828125 1018.710938 1566.808594 1018.28125 1573.640625 C 1017.179688 1587.980469 1015.058594 1600.789062 1011.890625 1612.050781 C 1008.101562 1625.039062 1002.28125 1638.691406 994.4375 1653.019531 C 994.179688 1654.019531 994.378906 1654.519531 995.035156 1654.519531 C 995.097656 1654.519531 995.164062 1654.511719 995.234375 1654.5 C 1053.441406 1603.601562 1091.738281 1562.589844 1110.140625 1531.46875 C 1120.78125 1513.859375 1129.671875 1494.269531 1136.808594 1472.730469 C 1151.820312 1406.871094 1163.109375 1364.308594 1170.671875 1345.03125 C 1177.949219 1323.640625 1192.511719 1299.640625 1214.328125 1273.050781 C 1237.820312 1247.941406 1252.710938 1233.941406 1259 1231.050781 C 1269.929688 1223.058594 1281.519531 1215.941406 1293.78125 1209.71875 C 1306.039062 1203.5 1318.960938 1198.179688 1332.558594 1193.730469 C 1346.148438 1189.289062 1360.410156 1185.738281 1375.328125 1183.078125 L 1405.820312 1172.128906 C 1379.480469 1158.019531 1354.28125 1150.960938 1330.230469 1150.929688 Z M 1918.660156 1446.71875 C 1913.589844 1459.359375 1920.769531 1480.089844 1940.210938 1508.921875 C 1955.980469 1531.691406 1977.820312 1552.390625 2005.710938 1571 C 2043.128906 1597.679688 2081.21875 1617.699219 2120.011719 1631.070312 C 2130.839844 1634.589844 2142.941406 1637.351562 2156.308594 1639.371094 L 2298.621094 1657.519531 C 2316.589844 1661.238281 2335.628906 1669.339844 2355.738281 1681.808594 L 2379.558594 1698.699219 C 2372.171875 1653 2351.308594 1621.691406 2316.96875 1604.761719 C 2302.179688 1596.910156 2289.238281 1591.609375 2278.160156 1588.828125 C 2216.660156 1578.550781 2161.25 1566.191406 2111.949219 1551.769531 C 2107.628906 1551.339844 2075.660156 1540.109375 2016.039062 1518.078125 C 1987.808594 1510.101562 1955.359375 1486.308594 1918.671875 1446.71875 Z M 2279.390625 1465.769531 C 2278.019531 1465.769531 2277.269531 1466.890625 2277.160156 1469.121094 C 2276.558594 1471.269531 2278.628906 1485.070312 2283.378906 1510.519531 C 2288.328125 1536.761719 2296.570312 1556.78125 2308.101562 1570.570312 C 2313.300781 1580.308594 2338.210938 1603.480469 2382.828125 1640.089844 C 2390.539062 1647.519531 2396.621094 1655.871094 2401.058594 1665.128906 C 2408.171875 1680.660156 2410.5 1692.929688 2408.03125 1701.929688 C 2406.449219 1706.789062 2403.550781 1710.578125 2399.320312 1713.28125 C 2396.890625 1715.308594 2392.648438 1716.320312 2386.601562 1716.308594 C 2386.039062 1716.308594 2385.460938 1716.300781 2384.871094 1716.28125 C 2383.671875 1716.769531 2383.289062 1717.460938 2383.71875 1718.351562 C 2451.019531 1749.769531 2491.941406 1784.628906 2506.46875 1822.949219 L 2520.109375 1838.101562 C 2527.890625 1817.128906 2525.980469 1780.808594 2514.390625 1729.128906 C 2510.96875 1707.121094 2496.648438 1679.289062 2471.421875 1645.660156 C 2449.429688 1620.898438 2407.238281 1582.980469 2344.839844 1531.890625 L 2282.039062 1466.660156 C 2280.988281 1466.070312 2280.109375 1465.769531 2279.390625 1465.769531 Z M 977.671875 1209.5 L 976.175781 1220.859375 C 973.449219 1235.96875 967.785156 1250.949219 959.179688 1265.808594 C 953.175781 1278.441406 939.03125 1295.378906 916.75 1316.621094 C 902.800781 1327.21875 889.414062 1336.210938 876.582031 1343.589844 C 822.753906 1366.679688 780.691406 1386.769531 750.390625 1403.851562 C 710.144531 1428.519531 688.476562 1444.421875 685.390625 1451.539062 C 679.4375 1458 673.714844 1465.160156 668.226562 1473.019531 C 654.910156 1493.898438 647.203125 1507.269531 645.097656 1513.140625 C 633.351562 1539.730469 626.964844 1556.359375 625.9375 1563.019531 C 622.578125 1574.851562 619.902344 1587.03125 617.914062 1599.570312 L 615.445312 1618.660156 C 614.144531 1631.558594 613.53125 1644.820312 613.605469 1658.441406 C 613.949219 1690.300781 616.648438 1714.351562 621.703125 1730.601562 C 623.804688 1744.691406 638.011719 1781.78125 664.3125 1841.859375 L 692.589844 1900.640625 C 694.8125 1903.621094 696.566406 1905.101562 697.847656 1905.109375 C 698.367188 1905.109375 698.8125 1904.859375 699.175781 1904.371094 C 699.582031 1904.128906 700.011719 1902.910156 700.472656 1900.679688 C 702.265625 1870.449219 704.820312 1843.390625 708.144531 1819.488281 C 712.628906 1791.011719 715.550781 1774.871094 716.90625 1771.070312 C 733.539062 1708.261719 750.378906 1662.839844 767.425781 1634.808594 C 772.960938 1622.691406 788.128906 1602.558594 812.921875 1574.429688 L 960.40625 1424.191406 C 977.457031 1402.269531 989.464844 1383.820312 996.425781 1368.851562 C 1021.320312 1304 1015.070312 1250.878906 977.671875 1209.5 Z M 2085.460938 1637.578125 L 2108.328125 1668.210938 C 2136.808594 1698.289062 2155.980469 1715.761719 2165.839844 1720.609375 C 2174.089844 1726.691406 2202.910156 1733.910156 2252.300781 1742.25 L 2232.78125 1758.691406 C 2230.539062 1760.839844 2230.5 1762.691406 2232.679688 1764.25 C 2234.210938 1765.519531 2242.398438 1768.089844 2257.25 1771.929688 C 2264.480469 1773.988281 2293.601562 1780.921875 2344.589844 1792.710938 C 2345.660156 1793.601562 2345.53125 1794.941406 2344.179688 1796.730469 L 2320.609375 1823.53125 C 2329 1826.5 2349.960938 1830.980469 2383.480469 1836.949219 C 2387.300781 1837.929688 2389.25 1838.921875 2389.320312 1839.910156 C 2383.789062 1848.960938 2369.558594 1859.71875 2346.640625 1872.191406 C 2366.238281 1876.410156 2385.25 1878.53125 2403.671875 1878.550781 C 2417.839844 1878.570312 2431.648438 1877.339844 2445.121094 1874.878906 L 2445.128906 1874.878906 C 2448.121094 1880.769531 2445.789062 1895.289062 2438.121094 1918.441406 C 2447.429688 1916.351562 2455.980469 1913.128906 2463.75 1908.789062 C 2476.820312 1900.410156 2485.339844 1893.230469 2489.289062 1887.230469 C 2495.621094 1877.949219 2499.53125 1869.378906 2501.03125 1861.539062 C 2502.160156 1859.359375 2501.921875 1853.871094 2500.320312 1845.109375 C 2499.25 1841.730469 2497.589844 1838.53125 2495.308594 1835.511719 C 2491.089844 1830 2485.269531 1824 2477.851562 1817.5 C 2476.128906 1814.871094 2461.429688 1804.03125 2433.730469 1784.960938 C 2409.328125 1769.019531 2378.570312 1751.109375 2341.429688 1731.230469 C 2309.859375 1716.46875 2282.351562 1705.898438 2258.890625 1699.519531 C 2248.511719 1696.390625 2216.148438 1690.429688 2161.808594 1681.660156 C 2150.761719 1679.078125 2142.710938 1676.808594 2137.660156 1674.839844 C 2127.949219 1671.300781 2119.109375 1666.878906 2111.148438 1661.570312 C 2104.710938 1658.089844 2096.140625 1650.101562 2085.46875 1637.578125 Z M 1711.890625 1510.878906 C 1702.171875 1510.871094 1692.050781 1512.058594 1681.519531 1514.441406 C 1641.78125 1522.058594 1623.691406 1545.058594 1627.261719 1583.449219 C 1630.859375 1600.289062 1641.71875 1617.011719 1659.851562 1633.609375 C 1789.890625 1740.5 1856.480469 1800.089844 1859.628906 1812.390625 C 1910.828125 1874.808594 1941.089844 1925.910156 1950.421875 1965.710938 L 1936.179688 1904.160156 C 1891.890625 1762.570312 1829.160156 1659.710938 1747.96875 1595.601562 C 1746.230469 1593.078125 1748.691406 1591.828125 1755.351562 1591.839844 C 1760.898438 1591.839844 1769.351562 1592.71875 1780.71875 1594.480469 C 1788.101562 1595.109375 1800.828125 1600.289062 1818.890625 1610.050781 C 1796.898438 1578.179688 1767.101562 1556.210938 1729.480469 1544.140625 C 1733.710938 1540.800781 1741.898438 1538.308594 1754.03125 1536.640625 C 1755.320312 1536.5 1756.710938 1536.429688 1758.179688 1536.441406 C 1765.101562 1536.441406 1774 1538.019531 1784.871094 1541.179688 C 1784.878906 1541.179688 1784.878906 1541.179688 1784.878906 1541.179688 C 1785.679688 1541.179688 1785.710938 1540.789062 1784.96875 1540.011719 C 1763.859375 1520.621094 1739.5 1510.910156 1711.890625 1510.878906 Z M 2036.289062 1691 L 2040.820312 1696.679688 C 2046.820312 1704.429688 2052.578125 1712.839844 2058.101562 1721.921875 C 2063.621094 1731 2068.910156 1740.738281 2073.960938 1751.140625 C 2073.871094 1750.898438 2073.839844 1750.769531 2073.878906 1750.761719 L 2073.890625 1750.761719 C 2073.980469 1750.78125 2074.390625 1751.421875 2075.109375 1752.660156 C 2079.71875 1761.871094 2098.75 1809.089844 2132.210938 1894.339844 L 2138.328125 1907.109375 C 2144.878906 1922.140625 2157.339844 1941.988281 2175.699219 1966.660156 C 2187.121094 1981.621094 2200.800781 1990.929688 2216.75 1994.609375 C 2220.300781 1995.460938 2223.808594 1995.878906 2227.269531 1995.890625 C 2238.011719 1995.898438 2248.351562 1991.871094 2258.300781 1983.789062 C 2240.789062 1982.359375 2222.640625 1975.898438 2203.859375 1964.421875 C 2202.980469 1963.738281 2202.96875 1962.769531 2203.808594 1961.5 C 2213.621094 1952.359375 2218.378906 1947.28125 2218.078125 1946.25 C 2207.769531 1946.070312 2198.449219 1943.628906 2190.109375 1938.941406 C 2185.648438 1936.570312 2181.140625 1933.609375 2176.589844 1930.050781 L 2169.730469 1924.269531 C 2165.140625 1920.121094 2160.5 1915.390625 2155.808594 1910.058594 C 2155.21875 1909.328125 2155.601562 1908.769531 2156.949219 1908.378906 C 2170.410156 1908.359375 2179.921875 1907.921875 2185.488281 1907.058594 L 2197.269531 1904.75 C 2197.859375 1904.601562 2198.058594 1904.121094 2197.859375 1903.328125 C 2182.449219 1896.390625 2173.710938 1891.808594 2171.628906 1889.570312 C 2166.429688 1885.980469 2161.648438 1882.050781 2157.289062 1877.75 C 2148.570312 1869.171875 2141.519531 1859.179688 2136.148438 1847.78125 L 2136.160156 1847.78125 C 2148.570312 1848.710938 2158.5 1849.191406 2165.949219 1849.199219 C 2166.890625 1849.199219 2167.789062 1849.191406 2168.640625 1849.179688 C 2168.769531 1849.179688 2168.890625 1849.179688 2169.019531 1849.179688 C 2174.289062 1849.191406 2177.128906 1848.488281 2177.53125 1847.089844 C 2158.308594 1834.589844 2146.03125 1825.519531 2140.699219 1819.859375 C 2138.058594 1816.910156 2132.769531 1809.910156 2124.820312 1798.871094 C 2113.898438 1783.53125 2099.949219 1762.78125 2082.988281 1736.609375 L 2074.769531 1726.359375 C 2067.328125 1717.191406 2062.191406 1711.269531 2059.371094 1708.601562 Z M 1843.671875 1529.839844 C 1871.390625 1565.058594 1891.78125 1600.328125 1904.828125 1635.679688 C 1900.578125 1634.671875 1896.101562 1634.160156 1891.398438 1634.160156 C 1874.210938 1634.140625 1854.03125 1640.808594 1830.851562 1654.171875 C 1886.699219 1678.371094 1917.039062 1698.460938 1921.878906 1714.441406 C 1926.46875 1722.328125 1930.339844 1732.03125 1933.480469 1743.558594 C 1943.460938 1793.558594 1952.53125 1832.089844 1960.699219 1859.160156 C 1961.589844 1861.628906 1962.921875 1862.859375 1964.691406 1862.871094 C 1964.738281 1862.871094 1964.789062 1862.871094 1964.839844 1862.859375 C 1970.578125 1858.308594 1975.328125 1856.03125 1979.089844 1856.03125 C 1980.121094 1856.03125 1981.070312 1856.210938 1981.949219 1856.550781 C 1987.839844 1857.351562 1991.859375 1859.941406 1994 1864.320312 C 1997.570312 1954.828125 2030.109375 2037.261719 2091.589844 2111.609375 C 2112.671875 2141.21875 2136.488281 2156.039062 2163.050781 2156.070312 C 2170.988281 2156.078125 2179.171875 2154.769531 2187.601562 2152.140625 C 2221.820312 2131.371094 2245.53125 2095.789062 2258.75 2045.390625 L 2264.808594 2009.78125 L 2264.800781 2009.78125 C 2251.070312 2016.960938 2237.578125 2020.550781 2224.328125 2020.53125 C 2197.671875 2020.5 2171.980469 2005.890625 2147.269531 1976.71875 C 2136.988281 1965.328125 2124.421875 1945.191406 2109.539062 1916.28125 C 2093.21875 1882.640625 2068.210938 1821.390625 2034.519531 1732.5 C 2018.910156 1697.210938 2002.019531 1666.078125 1983.859375 1639.121094 C 1933.800781 1573.269531 1887.070312 1536.839844 1843.679688 1529.839844 Z M 922.394531 1481.421875 L 920.792969 1486.96875 C 918.046875 1496.789062 914.816406 1505.789062 911.105469 1513.980469 C 857.421875 1605.820312 829.28125 1656.691406 826.679688 1666.601562 L 808.125 1721.398438 C 802.21875 1741.789062 799.042969 1753.609375 798.605469 1756.851562 C 792.316406 1785 788.929688 1823.449219 788.453125 1872.21875 C 786.753906 1886.660156 792.246094 1921.769531 804.933594 1977.558594 C 811.730469 2008.859375 825.160156 2041.410156 845.222656 2075.230469 C 848.929688 2083.570312 885.652344 2124.328125 955.394531 2197.519531 C 962.867188 2204.390625 1007.578125 2237.230469 1089.550781 2296.039062 L 1116.410156 2312.539062 C 1117.429688 2312.96875 1118.320312 2313.191406 1119.101562 2313.191406 C 1120.640625 2313.191406 1121.691406 2312.339844 1122.261719 2310.621094 L 1081.449219 2234.710938 C 1073.269531 2218.679688 1067.28125 2205.851562 1063.5 2196.25 C 1051.539062 2164.429688 1044.238281 2130.339844 1041.609375 2093.980469 C 1038.878906 2065.820312 1039.179688 2034.910156 1042.511719 2001.230469 L 1071.269531 1822.929688 C 1074.230469 1794.941406 1075.019531 1776.03125 1073.628906 1766.191406 C 1072.679688 1762.339844 1070.730469 1760.011719 1067.820312 1759.210938 C 1061.640625 1760.121094 1055.699219 1760.570312 1049.988281 1760.570312 C 1033.789062 1760.550781 1019.441406 1756.820312 1006.941406 1749.378906 C 988.675781 1737.960938 974.367188 1721.109375 964.027344 1698.800781 C 958.230469 1687.21875 953.863281 1671.929688 950.929688 1652.898438 L 945.386719 1557 C 944.789062 1551.140625 942.859375 1539.808594 939.597656 1523.019531 L 935.894531 1504.398438 Z M 1268.761719 1535.320312 L 1241.929688 1540.441406 C 1171.910156 1558.210938 1114.089844 1608.871094 1068.460938 1692.449219 C 1086.691406 1683.171875 1104.171875 1678.53125 1120.898438 1678.558594 C 1136.628906 1678.570312 1151.691406 1682.710938 1166.101562 1690.949219 C 1145.621094 1709.820312 1130.609375 1732 1121.058594 1757.46875 C 1116.289062 1770.210938 1112.890625 1783.78125 1110.851562 1798.160156 C 1108.808594 1812.558594 1108.140625 1827.769531 1108.839844 1843.820312 L 1110.910156 1868.5 C 1113.628906 1892.441406 1120.160156 1918.691406 1130.511719 1947.269531 L 1220.101562 2157.070312 C 1234.121094 2204.179688 1242.851562 2249.109375 1246.28125 2291.859375 C 1251.859375 2397.050781 1249.910156 2468.339844 1240.441406 2505.730469 C 1227.96875 2563.3125 1215.800781 2609.394531 1203.910156 2643.984375 C 1201.308594 2654.355469 1190.210938 2683.15625 1170.621094 2730.382812 C 1162.398438 2749 1153.628906 2767.234375 1144.300781 2785.078125 C 1177.339844 2758.910156 1210.351562 2725.96875 1243.339844 2686.253906 C 1268.101562 2660.277344 1309.308594 2600.054688 1366.960938 2505.582031 C 1423.03125 2386.644531 1457.269531 2281.5 1469.679688 2190.148438 L 1474.058594 2145.621094 C 1475.769531 2116.710938 1475.058594 2089.320312 1471.921875 2063.46875 C 1466.519531 2029.980469 1458.871094 2005.070312 1448.96875 1988.71875 C 1448.511719 1988.53125 1448.089844 1988.441406 1447.710938 1988.441406 C 1446.519531 1988.429688 1445.691406 1989.359375 1445.238281 1991.210938 C 1440.75 2022.140625 1435.890625 2041.089844 1430.660156 2048.03125 C 1418 2063.390625 1404.640625 2071.070312 1390.578125 2071.050781 C 1388.660156 2071.050781 1386.738281 2070.898438 1384.800781 2070.609375 C 1334.308594 2058 1297.179688 2019.210938 1273.410156 1954.269531 C 1254.648438 1893.398438 1260.511719 1823.710938 1290.96875 1745.179688 C 1261.25 1699.101562 1245.121094 1658.441406 1242.601562 1623.191406 L 1242.480469 1606.03125 C 1243.148438 1594.878906 1245.328125 1584.339844 1249.03125 1574.390625 Z M 1268.761719 1535.320312 "/>
</svg>
